<?xml version="1.0" standalone="no"?>
<!DOCTYPE svg PUBLIC "-//W3C//DTD SVG 20010904//EN"
 "http://www.w3.org/TR/2001/REC-SVG-20010904/DTD/svg10.dtd">
<svg version="1.0" xmlns="http://www.w3.org/2000/svg"
 width="256.000000pt" height="256.000000pt" viewBox="0 0 256.000000 256.000000"
 preserveAspectRatio="xMidYMid meet">
<metadata>
Created by potrace 1.14, written by Peter Selinger 2001-2017
</metadata>
<g transform="translate(0.000000,256.000000) scale(0.100000,-0.100000)"
fill="#000000" stroke="none">
<path d="M1307 1984 c-1 -1 -27 -5 -57 -7 -60 -6 -77 -9 -138 -28 -23 -7 -42
-16 -42 -21 0 -4 -3 -7 -7 -7 -16 3 -73 -14 -73 -21 0 -5 -13 -13 -30 -19 -16
-5 -30 -15 -30 -20 0 -6 -7 -11 -16 -11 -15 0 -144 -118 -144 -133 0 -4 -9
-17 -19 -28 -16 -17 -94 -163 -97 -179 0 -3 -6 -32 -14 -65 -21 -96 -15 -209
18 -310 18 -57 51 -134 62 -145 3 -3 21 -27 40 -55 35 -51 122 -145 134 -145
4 0 16 -9 28 -20 12 -11 28 -20 35 -20 7 0 13 -4 13 -10 0 -5 6 -10 14 -10 7
0 19 -6 25 -14 7 -8 27 -18 44 -22 18 -3 37 -10 42 -15 6 -4 26 -11 45 -14 19
-3 42 -8 50 -10 19 -5 112 -18 125 -17 28 2 123 13 140 17 94 19 265 105 265
132 0 8 4 12 9 9 4 -3 34 21 65 54 32 33 55 60 51 60 -3 0 1 8 11 17 21 22 80
148 82 176 0 4 7 19 16 32 23 35 30 79 29 185 -1 134 -5 155 -61 269 -40 80
-193 261 -222 261 -5 0 -10 4 -10 8 0 12 -119 79 -170 96 -54 17 -204 38 -213
30z m12 -645 c38 -13 51 -35 51 -87 0 -50 -19 -67 -81 -68 -51 -1 -76 15 -83
52 -2 11 -5 24 -7 29 -4 14 28 72 43 78 21 9 43 8 77 -4z"/>
</g>
</svg>
